<?xml version="1.0" encoding="UTF-8"?>
<svg width="48px" height="48px" viewBox="0 0 48 48" version="1.1" xmlns="http://www.w3.org/2000/svg" xmlns:xlink="http://www.w3.org/1999/xlink">
    <!-- Generator: Sketch 56.3 (81716) - https://sketch.com -->
    <title>logo</title>
    <desc>Created with Sketch.</desc>
    <g id="Page-1" stroke="none" stroke-width="1" fill="none" fill-rule="evenodd">
        <g id="logo" fill-rule="nonzero">
            <path d="M24.479,19.805 L30.232,19.805 L30.232,29.418 L20.444,46.372 L21.777,47.142 C22.509,47.212 23.25,47.25 24,47.25 C36.841,47.25 47.25,36.841 47.25,24 C47.25,19.26 45.828,14.853 43.392,11.177 L24.479,11.177 L24.479,19.805 Z" id="Path" fill="#FDE751"></path>
            <path d="M24,47.75 C23.269,47.75 22.504,47.713 21.729,47.64 L21.526,47.575 L19.76,46.555 L29.731,29.284 L29.731,20.305 L23.979,20.305 L23.979,10.676 L43.66,10.676 L43.808,10.9 C46.386,14.791 47.749,19.32 47.749,24 C47.75,37.096 37.096,47.75 24,47.75 Z M21.932,46.654 C22.639,46.717 23.333,46.75 24,46.75 C36.544,46.75 46.75,36.544 46.75,24 C46.75,19.607 45.496,15.353 43.122,11.677 L24.979,11.677 L24.979,19.306 L30.731,19.306 L30.731,29.552 L21.126,46.19 L21.932,46.654 Z" id="Shape" fill="#472B29"></path>
            <path d="M24,0.75 C11.159,0.75 0.75,11.159 0.75,24 C0.75,25.857 0.974,27.662 1.386,29.393 L23.521,29.393 L23.521,15.97 L45.826,15.97 C42.556,7.087 34.018,0.75 24,0.75 Z" id="Path" fill="#EA5167"></path>
            <path d="M24.021,29.893 L0.991,29.893 L0.9,29.508 C0.468,27.696 0.25,25.843 0.25,24 C0.25,10.904 10.904,0.25 24,0.25 C33.913,0.25 42.872,6.498 46.294,15.798 L46.542,16.471 L24.021,16.471 L24.021,29.893 Z M1.784,28.893 L23.02,28.893 L23.02,15.471 L45.096,15.471 C41.641,6.936 33.254,1.25 24,1.25 C11.456,1.25 1.25,11.456 1.25,24 C1.25,25.635 1.43,27.279 1.784,28.893 Z" id="Shape" fill="#472B29"></path>
            <g id="Group" transform="translate(0.000000, 8.000000)">
                <path d="M27.504,38.987 C27.512,38.986 27.52,38.985 27.528,38.984 C27.52,38.985 27.512,38.985 27.504,38.987 Z" id="Path" fill="#67BA8C"></path>
                <polygon id="Path" fill="#472B29" points="27.643 39.47 27.383 38.502 27.455 38.489"></polygon>
                <path d="M21.777,39.142 L20.444,38.372 L30.232,21.418 L30.232,19.475 L16.617,19.475 L6.067,1.201 C2.746,5.222 0.75,10.378 0.75,16 C0.75,28.465 10.559,38.636 22.879,39.222 C22.509,39.203 22.142,39.176 21.777,39.142 Z" id="Path" fill="#67BA8C"></path>
                <path d="M22.855,39.721 C22.854,39.721 22.854,39.721 22.855,39.721 L22.855,39.721 C22.854,39.721 22.853,39.721 22.852,39.721 C10.178,39.118 0.25,28.699 0.25,16 C0.25,10.491 2.179,5.122 5.682,0.884 L6.14,0.329 L16.906,18.975 L30.732,18.975 L30.732,21.551 L21.127,38.189 L21.932,38.653 C22.254,38.682 22.578,38.706 22.904,38.722 L22.855,39.721 Z M6,2.086 C2.932,6.053 1.25,10.965 1.25,16 C1.25,27.13 9.211,36.432 19.865,38.375 L29.732,21.284 L29.732,19.975 L16.329,19.975 L6,2.086 Z" id="Shape" fill="#472B29"></path>
                <path d="M25.586,39.19 C25.717,39.181 25.848,39.171 25.978,39.16 C25.847,39.171 25.717,39.181 25.586,39.19 Z" id="Path" fill="#67BA8C"></path>
                <polygon id="Path" fill="#472B29" points="25.619 39.689 25.552 38.691 25.937 38.662 26.019 39.658"></polygon>
                <path d="M29.052,38.693 C29.171,38.667 29.288,38.639 29.406,38.611 C29.289,38.639 29.17,38.667 29.052,38.693 Z" id="Path" fill="#67BA8C"></path>
                <polygon id="Path" fill="#472B29" points="29.16 39.182 28.943 38.205 29.289 38.125 29.523 39.098"></polygon>
                <path d="M32.643,37.583 C32.542,37.623 32.441,37.664 32.339,37.703 C32.44,37.664 32.542,37.624 32.643,37.583 Z" id="Path" fill="#67BA8C"></path>
                <polygon id="Path" fill="#472B29" points="32.517 38.17 32.16 37.236 32.455 37.12 32.831 38.046"></polygon>
                <g transform="translate(35.000000, 35.000000)" id="Path">
                    <path d="M0.658,1.113 C0.571,1.163 0.484,1.214 0.397,1.263 C0.485,1.213 0.572,1.163 0.658,1.113 Z" fill="#67BA8C"></path>
                    <polygon fill="#472B29" points="0.645 1.697 0.15 0.828 0.406 0.681 0.912 1.543 0.911 1.544"></polygon>
                </g>
                <g transform="translate(33.000000, 36.000000)" id="Path">
                    <path d="M1.034,0.978 C1.033,0.978 1.032,0.979 1.031,0.979 C1.033,0.979 1.033,0.978 1.034,0.978 Z" fill="#67BA8C"></path>
                    <path d="M1.033,0.479 C0.756857625,0.479 0.533,0.702857625 0.533,0.979 C0.533,1.25514237 0.756857625,1.479 1.033,1.479 C1.30914237,1.479 1.533,1.25514237 1.533,0.979 C1.533,0.702857625 1.30914237,0.479 1.033,0.479 Z" fill="#472B29"></path>
                </g>
                <g transform="translate(30.000000, 37.000000)" id="Path">
                    <path d="M0.883,1.214 C0.88,1.215 0.877,1.216 0.875,1.217 C0.877,1.215 0.88,1.214 0.883,1.214 Z" fill="#67BA8C"></path>
                    <polygon fill="#472B29" points="0.964 1.707 0.716 0.741 1.068 1.678"></polygon>
                </g>
                <g transform="translate(36.000000, 34.000000)" id="Path">
                    <polygon fill="#67BA8C" points="0.939 1.318 0.943 1.315 0.943 1.315"></polygon>
                    <polygon fill="#472B29" points="1.099 1.791 0.944 1.325 0.662 0.901 0.783 0.842 0.938 1.308 1.221 1.731"></polygon>
                </g>
            </g>
            <g id="Group" transform="translate(15.000000, 15.000000)">
                <path d="M9,0.851 C4.49943157,0.851 0.851,4.49943157 0.851,9 C0.851,13.5005684 4.49943157,17.149 9,17.149 C11.9113574,17.149 14.6015625,15.5958095 16.0572412,13.0745001 C17.5129199,10.5531907 17.5129199,7.44680934 16.0572412,4.92549993 C14.6015625,2.40419052 11.9113574,0.851 9,0.851 Z" id="Path" fill="#48BED8"></path>
                <path d="M9,17.649 C4.23,17.649 0.351,13.769 0.351,9 C0.351,4.231 4.231,0.351 9,0.351 C13.769,0.351 17.649,4.231 17.649,9 C17.649,13.769 13.77,17.649 9,17.649 Z M9,1.351 C4.782,1.351 1.351,4.783 1.351,9 C1.351,13.217 4.783,16.649 9,16.649 C13.217,16.649 16.649,13.217 16.649,9 C16.649,4.783 13.218,1.351 9,1.351 Z" id="Shape" fill="#472B29"></path>
            </g>
            <path d="M24,47.95 C10.794,47.95 0.05,37.206 0.05,24 C0.05,10.794 10.794,0.05 24,0.05 C37.206,0.05 47.95,10.794 47.95,24 C47.95,37.206 37.206,47.95 24,47.95 Z M24,1.45 C11.566,1.45 1.45,11.565 1.45,24 C1.45,36.435 11.566,46.55 24,46.55 C36.434,46.55 46.55,36.435 46.55,24 C46.55,11.565 36.434,1.45 24,1.45 Z" id="Shape" fill="#472B29"></path>
            <path d="M38.569,11.69 C38.432,11.69 38.296,11.634 38.197,11.524 C38.005,11.31 37.808,11.101 37.607,10.896 C36.827,10.103 35.969,9.375 35.056,8.732 C34.83,8.573 34.776,8.26 34.935,8.035 C35.094,7.81 35.405,7.756 35.632,7.914 C36.594,8.592 37.498,9.359 38.32,10.195 C38.532,10.41 38.739,10.631 38.941,10.856 C39.126,11.061 39.108,11.377 38.903,11.562 C38.808,11.648 38.688,11.69 38.569,11.69 Z" id="Path" fill="#472B29"></path>
            <path d="M23.985,44.044 C16.422,44.044 9.179,39.749 5.812,32.463 C3.574,27.619 3.363,22.192 5.216,17.179 C7.069,12.167 10.765,8.171 15.623,5.927 C20.827,3.523 26.823,3.457 32.073,5.752 C32.47,5.925 32.862,6.111 33.247,6.311 C33.492,6.438 33.588,6.74 33.461,6.985 C33.335,7.23 33.033,7.328 32.787,7.2 C32.421,7.011 32.05,6.834 31.673,6.669 C26.685,4.491 20.988,4.551 16.043,6.836 C11.427,8.968 7.916,12.765 6.155,17.526 C4.395,22.288 4.596,27.443 6.721,32.044 C11.109,41.542 22.431,45.688 31.959,41.286 C36.575,39.154 40.086,35.357 41.847,30.596 C43.607,25.834 43.406,20.679 41.281,16.078 C40.882,15.213 40.415,14.374 39.894,13.583 C39.742,13.352 39.806,13.042 40.037,12.89 C40.268,12.739 40.578,12.803 40.729,13.033 C41.277,13.866 41.769,14.75 42.189,15.659 C44.427,20.503 44.638,25.93 42.785,30.943 C40.932,35.955 37.236,39.951 32.378,42.195 C29.658,43.449 26.799,44.044 23.985,44.044 Z" id="Path" fill="#472B29"></path>
        </g>
    </g>
</svg>